
<global>
amp_veltrack=0
ampeg_release=0.50
</global>

<group>
group_label=Group_0-45
lpc_hicc1=42
lpc_locc1=0

<region>
hikey=G#2
hivel=127
lokey=G2
loop_end=259720
loop_mode=loop_continuous
loop_start=84426
loop_xfade=21240
lovel=0
lpc=indCQ84kzsOmRWVD5T+VwhdW+kKGcnXCaMvtQfwcCsIUvefA0Wi2QKanOb5R0d1Bb0enwQrS8UCELhbBS+n6Pyy/ZcEMbyFBIPZ5QKl8AEGW942/hu5qwe4hnj64p+dA
lpc_rms=-26.59
pitch_keycenter=G#2
sample=Contrabassoon_nonvib_PP_G#3.opus
</region>

<region>
hikey=G#1
hivel=127
lokey=G1
loop_end=260626
loop_mode=loop_continuous
loop_start=84721
loop_xfade=21314
lovel=0
lpc=IRQGQ2JensMxJVpDodx4wkqzgEIlAwLCN2W1QegGUsJ7CpdBlkqpQIdEn8D4Ha9BFldqwRtCg0Dp2Z3A+8UBwYSOQcAzzAxBQg7kQCMZ8T9EshLB+Sj4QMyVV8H4xfZA
lpc_rms=-29.39
pitch_keycenter=G#1
sample=Contrabassoon_nonvib_PP_G#2.opus
</region>

<region>
hikey=F#2
hivel=127
lokey=F2
loop_end=302815
loop_mode=loop_continuous
loop_start=98435
loop_xfade=24765
lovel=0
lpc=+8RtQ2x9A8SMIaRDqzYHwzA8NUPSS9rCxHXtQqemCcMD6EpCrQnJwVBNGEHdF35BBzusQBkwZUAA86XBlp9jwJMcO8EObIpAieA3QW3enUHHqo3BIszkQO85GsFoyUlA
lpc_rms=-24.26
pitch_keycenter=F#2
sample=Contrabassoon_nonvib_PP_F#3.opus
</region>

<region>
hikey=F#1
hivel=127
lokey=F1
loop_end=263758
loop_mode=loop_continuous
loop_start=85739
loop_xfade=21571
lovel=0
lpc=/91jQ16YBsS+E7VDUQnBwqeG7kIjcVfCv47ZQG+eNcLlhY7BrKC9QZjaOUFXMfdBC0iywS4GzEAJ3HnBFKRrwZiNL72c8wRBLMTPQYRijsH9C8NBuxfUwSP1jcHoA6BB
lpc_rms=-25.21
pitch_keycenter=F#1
sample=Contrabassoon_nonvib_PP_F#2.opus
</region>

<region>
hikey=E2
hivel=127
lokey=D#2
loop_end=265828
loop_mode=loop_continuous
loop_start=86412
loop_xfade=21740
lovel=0
lpc=ePkMQ59xocPC7oVDtEkpwzmR3EK0EjHCLVCOQqRvnMK3eS9CpUAdwgR0jEEQ6RhBFh2OwIl4QkC9LARAbQVWwSWNAz9pdKFAWaCdQG4YicDhrzrAPRb8QN8YR8EGzO9A
lpc_rms=-25.03
pitch_keycenter=E2
sample=Contrabassoon_nonvib_PP_E3.opus
</region>

<region>
hikey=E1
hivel=127
lokey=D#1
loop_end=252448
loop_mode=loop_continuous
loop_start=82062
loop_xfade=20646
lovel=0
lpc=C78OQ/zoqMN+sG1D1+SWwmuol0Kz8PLB/XeJQOtXEMJwNWNBwqmqwaUz9EHn11JBeo31wHZMwECMzLDBqrb2wJxXhD8H1ZJB3oUwQGx+ej88pODAtQsnQIeXnsEoqXdB
lpc_rms=-30.66
pitch_keycenter=E1
sample=Contrabassoon_nonvib_PP_E2.opus
</region>

<region>
hikey=D#4
hivel=127
lokey=C#3
loop_end=260209
loop_mode=loop_continuous
loop_start=84585
loop_xfade=21280
lovel=0
lpc=ywYgQzYytcM9eIJDJ8nxwtTq4kJ93yjCkqYkQehoEcJdarlBmeDpwdu9FEIC+x7BfObCvv2FocFCyAFChGbBwUXeo0Cwqhq/kiQbQZNA9z8l6WA/4d/JwAQaTsEJMzdB
lpc_rms=-25.77
pitch_keycenter=D3
sample=Contrabassoon_nonvib_PP_D4.opus
</region>

<region>
hikey=D2
hivel=127
lokey=C#2
loop_end=255855
loop_mode=loop_continuous
loop_start=83170
loop_xfade=20924
lovel=0
lpc=SMnlQsqPiMO4WGRD+UMEw9S+rkLHFpLB14WnQf6FH8LayDNASUQRQCnN1z8kINxBLMyFwZCKTz/9LF/B8eqaQGmHUsEaGJNBQcbIQIMhU8B6m9PA9bpIQXkVz8EHjHNB
lpc_rms=-26.60
pitch_keycenter=D2
sample=Contrabassoon_nonvib_PP_D3.opus
</region>

<region>
hikey=D1
hivel=127
lokey=C#1
loop_end=263888
loop_mode=loop_continuous
loop_start=85781
loop_xfade=21581
lovel=0
lpc=/hpnQ6OEBsQ5tLBDrIy4wm5A/UL5sovCUxeIQd8NQsIgBmzAeARCv9ttSkGu6SZCD1cSwaS/XEFF4S/Cw+wBwdB8gcH3qCFCN6OIQbQaS8EKVh/BkYwrQT//E8Lt5dFB
lpc_rms=-26.18
pitch_keycenter=D1
sample=Contrabassoon_nonvib_PP_D2.opus
</region>

<region>
hikey=C3
hivel=127
lokey=B2
loop_end=258888
loop_mode=loop_continuous
loop_start=84156
loop_xfade=21172
lovel=0
lpc=wGhwQh6Z+8KvGZJC5ovDwQC80kHOq3M/dKyVwJ2jU8CmuwzBb6iCP2IjkkDmTJBA24TrP4G8iMCm2r0/uuPNwA1M6b2HQU5AWNDrQE4TmsAOdLW/GOHQv4V3C8D8w2tA
lpc_rms=-36.00
pitch_keycenter=C3
sample=Contrabassoon_nonvib_PP_C4.opus
</region>

<region>
hikey=C2
hivel=127
lokey=B1
loop_end=260679
loop_mode=loop_continuous
loop_start=84738
loop_xfade=21319
lovel=0
lpc=bnP2QlRYh8OsSjVDjqOqwscFnkLn+MXBix4PQlerYcLPWo5B12kKwd0/cr8CPOFBorokwQSg7T+BnObAI7hiwaTHv8BiKFNBrA4zQX/fWT91dD/BX+ZaQb2AeMHNZdBA
lpc_rms=-29.48
pitch_keycenter=C2
sample=Contrabassoon_nonvib_PP_C3.opus
</region>

<region>
hikey=C1
hivel=127
lokey=B0
loop_end=260035
loop_mode=loop_continuous
loop_start=84529
loop_xfade=21266
lovel=0
lpc=svazQ8bbT8STRwhEsXkcw8xdPEOfCJjChp6sQXTOusLO3vBBJknywSBfFUIxJV5CzI7awdV/5UCb6hzCkA+gwWarUL9ZU8RBh4j5QXnDEsEuSfHB156cQda8aMHAlxlB
lpc_rms=-21.96
pitch_keycenter=C1
sample=Contrabassoon_nonvib_PP_C2.opus
</region>

<region>
hikey=A#2
hivel=127
lokey=A2
loop_end=255777
loop_mode=loop_continuous
loop_start=83144
loop_xfade=20918
lovel=0
lpc=ADGAQ+WsCcTzHplDZ4i4wkdqLENEFaXCZf79QTIzjsJv5g5CJLi6waWBokB6CCdCL9KxwSvZiUBrZK6/gpjBwBmQ38E6N5dAwffGQa6JNMARt9ZB5HBnwtbhDkIN6tLA
lpc_rms=-24.23
pitch_keycenter=A#2
sample=Contrabassoon_nonvib_PP_A#3.opus
</region>

<region>
hikey=A#1
hivel=127
lokey=A1
loop_end=257320
loop_mode=loop_continuous
loop_start=83646
loop_xfade=21044
lovel=0
lpc=TdkNQ8mRpcOHuXFD7enOwqNLukLxLRjCkIiyQcsINsKxq3lB6omFv3vCRkCnIapBgKzWwSgCjEGkwTfBmj5cP0ZhU8HO9AFBxLuAQcMtZsFBdkNBp9c3wSIiDECjaac/
lpc_rms=-27.59
pitch_keycenter=A#1
sample=Contrabassoon_nonvib_PP_A#2.opus
</region>

<region>
hikey=A#0
hivel=127
lokey=A0
loop_end=255448
loop_mode=loop_continuous
loop_start=83037
loop_xfade=20891
lovel=0
lpc=JxgeQ3QfsMNLMEBDkmFHwa9+k0IssDTC6BHwwJdDBMLDBatBr16uv2fwZ0FZnPs/31sQwYRrEMDtnohBOyCawdQw78DcEUpBimJbQA+6E8HJjFfAJuoeQfu29z0RLQnA
lpc_rms=-26.48
pitch_keycenter=A#0
sample=Contrabassoon_nonvib_PP_A#1.opus
</region>
</group>

<group>
group_label=Group_46-90
lpc_hicc1=84
lpc_locc1=43

<region>
hikey=G#2
hivel=127
lokey=G2
loop_end=257946
loop_mode=loop_continuous
loop_start=83850
loop_xfade=21095
lovel=0
lpc=b8X4QlvgkcPcIEpDHiyiwvJfs0IsuX7BzjVywYrltcERDIa/cLCowGePmkE6G1BBGLHXwBzqWD5e3ZjBz0ewPxXVXsDEPQFBGDCRQeQrnsBYcPnAM2j2P39fRsFR/RZB
lpc_rms=-21.93
pitch_keycenter=G#2
sample=Contrabassoon_nonvib_MF_G#3.opus
</region>

<region>
hikey=G#1
hivel=127
lokey=G1
loop_end=260846
loop_mode=loop_continuous
loop_start=84792
loop_xfade=21332
lovel=0
lpc=yZXJQpgfhMP3yXdD1voHw1RaqkJUwvDBeZMYQU/yIcJEDyZCv2cnwe/TXMGUYkJBLsH8QMP0XMB/RnnASqaQwKMSPcGavPpAYb2MQVQWYMEiKlZBaciPwVIoCUGuwYm/
lpc_rms=-21.29
pitch_keycenter=G#1
sample=Contrabassoon_nonvib_MF_G#2.opus
</region>

<region>
hikey=F#2
hivel=127
lokey=F2
loop_end=256998
loop_mode=loop_continuous
loop_start=83541
loop_xfade=21018
lovel=0
lpc=qUgEQ0nWpMM2IJBDcZ03w8QaMEPYYbrCz+YeQhUQq8I4Yq9CILIywsfn1ECAZ+tBIXYcwrLwIULfPyXCPCS4QQAItcFxk/hB00PoweR50kEQQF3BxQqMQMbOl8ApExhA
lpc_rms=-20.37
pitch_keycenter=F#2
sample=Contrabassoon_nonvib_MF_F#3.opus
</region>

<region>
hikey=F#1
hivel=127
lokey=F1
loop_end=260788
loop_mode=loop_continuous
loop_start=84773
loop_xfade=21328
lovel=0
lpc=N9m9QtzBWsMGJC1D4SXcwm/lxkJMLeXBHJsiwbLiCkEp4JzBVp6OQfMaZsGifYbAUbOrQYsQLMEE/MBBUi0TwjoYnUG4NmfBzmMAQakRBUGn7B7BJVelQFbvssCEFElA
lpc_rms=-19.79
pitch_keycenter=F#1
sample=Contrabassoon_nonvib_MF_F#2.opus
</region>

<region>
hikey=E2
hivel=127
lokey=D#2
loop_end=262236
loop_mode=loop_continuous
loop_start=85244
loop_xfade=21446
lovel=0
lpc=avaWQgvXOcPHQCpDB8DRwn9MgEL8pcDB51D9QTtgTMLn7DRCPsgvwlxV0UEaSCNB2mRwwa6W/UBzY6bAubMcwcYX70CFOpU/GdqLv5/KEEHs1EHBmbIRQUT27sD0n0tA
lpc_rms=-20.00
pitch_keycenter=E2
sample=Contrabassoon_nonvib_MF_E3.opus
</region>

<region>
hikey=E1
hivel=127
lokey=D#1
loop_end=261199
loop_mode=loop_continuous
loop_start=84907
loop_xfade=21361
lovel=0
lpc=PtYoQnMOvMKcJpZCnVk6wjzUIkKqNxHCDSBDQirDPcJPO8ZBqhqJwQJ2mEHUTz7BV0z0QOyGQMF+bElBt2HowC/UhUDUzly/M7k8wJ5q2T9N9JA/nYouvjNbAMDY+Yo/
lpc_rms=-21.13
pitch_keycenter=E1
sample=Contrabassoon_nonvib_MF_E2.opus
</region>

<region>
hikey=D#4
hivel=127
lokey=C#3
loop_end=255960
loop_mode=loop_continuous
loop_start=83204
loop_xfade=20933
lovel=0
lpc=vCjRQrXWb8NVfz5DvLrWwhujlUKq6ErBEkdtQfNdOsJgW8tB1d6uwf/J10EoSdjAydWFQW3R1sHMC1xBSQ7cwPn3VsBjr0pAFeGOQOJ+TMDgeZFAhOfgPzaPjsFCc0tB
lpc_rms=-21.76
pitch_keycenter=D3
sample=Contrabassoon_nonvib_MF_D4.opus
</region>

<region>
hikey=D2
hivel=127
lokey=C#2
loop_end=254395
loop_mode=loop_continuous
loop_start=82695
loop_xfade=20805
lovel=0
lpc=wHJkQk4V/sIIOslCBxt/wuqnJEItXHXAOMRbQX8gycGyGDBBPplfwVN0QkHqpv+/wtonQXWwUsG41gxApvmEPdbgBsH/olBB1fJzwHNisUCB987AlS+UQGHaIsFOvdNA
lpc_rms=-22.00
pitch_keycenter=D2
sample=Contrabassoon_nonvib_MF_D3.opus
</region>

<region>
hikey=D1
hivel=127
lokey=C#1
loop_end=293829
loop_mode=loop_continuous
loop_start=95514
loop_xfade=24030
lovel=0
lpc=DUHjQvpmisNh12BDlY3mwln360LevMTCRAApQrFNHsBUGlZA3faHwbRKF0GoyjjBqVgHQp+/BMIWn9ZB1SxVwg+MW0Lw1MvBd9ExQaJMucAq+mfAf5wKQXBRI8A+k46/
lpc_rms=-20.48
pitch_keycenter=D1
sample=Contrabassoon_nonvib_MF_D2.opus
</region>

<region>
hikey=C3
hivel=127
lokey=B2
loop_end=288950
loop_mode=loop_continuous
loop_start=93928
loop_xfade=23631
lovel=0
lpc=WrNwQlD2/cLzwpRCGBvywf6+I0IbERzBUxRHwGVAJ8GsbqlA3/XXPqBPVsDvcrVAwHCJvx+2hT55glHAZEWHQDE3HcEAEpNAX6zZP/yFjkBlOYJACxcEwQwEtsAAJMRA
lpc_rms=-26.49
pitch_keycenter=C3
sample=Contrabassoon_nonvib_MF_C4.opus
</region>

<region>
hikey=C2
hivel=127
lokey=B1
loop_end=259145
loop_mode=loop_continuous
loop_start=84239
loop_xfade=21193
lovel=0
lpc=J9KoQoLAXsMLNlVDuPrtwjM/hUJLKQDBuI0swamo/MFq7VxCyYQowlUQXECZlwxCQIwdwrsCDEI1mbrBALLVQFmyg8E8xgZBB7E3Qd0F0j5fU1K+NtU1wWwl+T9KYGBA
lpc_rms=-22.12
pitch_keycenter=C2
sample=Contrabassoon_nonvib_MF_C3.opus
</region>

<region>
hikey=C1
hivel=127
lokey=B0
loop_end=261910
loop_mode=loop_continuous
loop_start=85138
loop_xfade=21419
lovel=0
lpc=+WkmQ3LYzsPuQatDJtIXw0tAAUOI8urCzv9AQinlFkHZ7/1AoA8BwkXdgD9fDlpB501YwBQgn0GjxIPBW+kQwpWoSkJkfIXBuzL3QL6XK8HoJVXB2pQNQpJy+8EeZEFB
lpc_rms=-16.29
pitch_keycenter=C1
sample=Contrabassoon_nonvib_MF_C2.opus
</region>

<region>
hikey=A#2
hivel=127
lokey=A2
loop_end=261971
loop_mode=loop_continuous
loop_start=85158
loop_xfade=21424
lovel=0
lpc=f10+Q+d+5sNdbLJDzHEww44IKkOSeUPCY13Xwc42qcEOlkJBbwSowEauSkE/7nFAuIDhP20lCD9sLgy/3tbawa/UeUHAazXBf+EXQlMw18GsU5dBAn3AwW0mAUEDjPM/
lpc_rms=-18.48
pitch_keycenter=A#2
sample=Contrabassoon_nonvib_MF_A#3.opus
</region>

<region>
hikey=A#1
hivel=127
lokey=A1
loop_end=259202
loop_mode=loop_continuous
loop_start=84258
loop_xfade=21198
lovel=0
lpc=MnzNQiAFb8PjJDlDlEW/wmxAo0KRKy3CEewcQgNsfsJV81hCOF0GwrtJP0G1TzxA5QJ4QK2c9r/4tCDATQwQvwCdIMHnAUdAdmN4QAuaC0F5nmnA79W+v/TK5MA3/LZA
lpc_rms=-20.69
pitch_keycenter=A#1
sample=Contrabassoon_nonvib_MF_A#2.opus
</region>

<region>
hikey=A#0
hivel=127
lokey=A0
loop_end=260021
loop_mode=loop_continuous
loop_start=84524
loop_xfade=21265
lovel=0
lpc=Y5eLQmbRL8Pb/SVDSe7GwnOzl0LhrYfC67gjQi4/+r6+TGHBQtD3QACem8B+ZNk/c9APQOj/8rvj4gZAPTzTwGfvukB6iYXAjloMQLpbxL9hvgDA/nHNQNFmysBEESxA
lpc_rms=-22.09
pitch_keycenter=A#0
sample=Contrabassoon_nonvib_MF_A#1.opus
</region>
</group>

<group>
group_label=Group_91-127
lpc_hicc1=127
lpc_locc1=85

<region>
hikey=G#2
hivel=127
lokey=G2
loop_end=260240
loop_mode=loop_continuous
loop_start=84595
loop_xfade=21283
lovel=0
lpc=8BuDQr9sFsN12tZCKdM4ws8fLkLZ97TBvAqpQeRR4sH874pBCnIswcVa87/+aT8/pHIJQZzcwsAAgh9BElPnwMmB8r4Wtra+wcw/wE/pSkBNgRPAZ556QHyJID8+ZwbA
lpc_rms=-19.10
pitch_keycenter=G#2
sample=Contrabassoon_nonvib_FF_G#3.opus
</region>

<region>
hikey=G#1
hivel=127
lokey=G1
loop_end=272213
loop_mode=loop_continuous
loop_start=88487
loop_xfade=22262
lovel=0
lpc=fdrYQcZaWMK4WgZC9dlXwRdwHUFNoxrBRkidQTDnXsFXNabA494jQRBbFMEy9TlBzekiwb41skBYruO/rG8HQJ093r+Hss89YNyWP1MWHMBmOtE/7jWvviut+r8akeM/
lpc_rms=-22.05
pitch_keycenter=G#1
sample=Contrabassoon_nonvib_FF_G#2.opus
</region>

<region>
hikey=F#2
hivel=127
lokey=F2
loop_end=264012
loop_mode=loop_continuous
loop_start=85821
loop_xfade=21591
lovel=0
lpc=XERVQj1J9MLVPdRCVzCfwuEllkL3BjnCeqKmQbqUMsGiywFBSG6kv6JYB8FqzANBzrekwIhcMUH4KUnBMRmyP5SYp0ANP9zApWwDQURj0MB6UZpAc7EEwLPH/D/ceQTA
lpc_rms=-19.44
pitch_keycenter=F#2
sample=Contrabassoon_nonvib_FF_F#3.opus
</region>

<region>
hikey=F#1
hivel=127
lokey=F1
loop_end=266766
loop_mode=loop_continuous
loop_start=86716
loop_xfade=21817
lovel=0
lpc=xhMAQoUki8LFLV9C9vnUwd/NMEENoXLBXrACQqta7cFkGZFA1MtaQVSMisFEl4VB0KMqwYN8/D8xdcc/8sivP1YaFsChXKk+061hQGIM/cDxedxA858NwKdwSb/nbyM/
lpc_rms=-19.89
pitch_keycenter=F#1
sample=Contrabassoon_nonvib_FF_F#2.opus
</region>

<region>
hikey=E2
hivel=127
lokey=D#2
loop_end=257145
loop_mode=loop_continuous
loop_start=83589
loop_xfade=21030
lovel=0
lpc=g6cfQnHYtcI0g6JCmcdfwmHeDEKKb5nB0lOnQXUtZsFkXQlB4as1wGos7cCkBAVBxIvGwE5NsEC5NH/AHBgrQI6SBMCyu6S+Ik+9P0Gfoj8pNQfA/cF+QHoc4MDyZnBA
lpc_rms=-18.18
pitch_keycenter=E2
sample=Contrabassoon_nonvib_FF_E3.opus
</region>

<region>
hikey=E1
hivel=127
lokey=D#1
loop_end=259467
loop_mode=loop_continuous
loop_start=84344
loop_xfade=21220
lovel=0
lpc=3LHeQa7Ba8JRAS1CsCaxwSaRg0E4UovBNvfcQX0Vp8EP96s+0bmqQEIRbsC/YNhArPrxwLElhUCuQAA+NsZgvwMM0D5qnSy+mSyxPVFB4b85qTtAuq/yv58SKz4eMyE+
lpc_rms=-22.17
pitch_keycenter=E1
sample=Contrabassoon_nonvib_FF_E2.opus
</region>

<region>
hikey=D#4
hivel=127
lokey=C#3
loop_end=266351
loop_mode=loop_continuous
loop_start=86582
loop_xfade=21783
lovel=0
lpc=gs2FQhPfGcNApwND7ACuwjyoW0IHCQPBtoyQQX5+DcJgclhBOo70wA2/jUBBZDBBnUzswA8Pr0BIZy7Bfi8kQRftsMGHs9tBCrZQwXMgM0EJAi/BggqYQONtTsHHUihB
lpc_rms=-17.56
pitch_keycenter=D3
sample=Contrabassoon_nonvib_FF_D4.opus
</region>

<region>
hikey=D2
hivel=127
lokey=C#2
loop_end=255930
loop_mode=loop_continuous
loop_start=83194
loop_xfade=20930
lovel=0
lpc=RuAAQpliiMK9PFNCtgcOwrazv0EVzgPB7qVDQdsDCsHa6IS/h+z+v5UuiEAxN4fAuUuwQGZmUcDqZdk/SodRv9uEO8C0jlRACY6yv5pXDkCpXHXA4mEsQF9YQL8sNpw+
lpc_rms=-19.95
pitch_keycenter=D2
sample=Contrabassoon_nonvib_FF_D3.opus
</region>

<region>
hikey=D1
hivel=127
lokey=C#1
loop_end=267156
loop_mode=loop_continuous
loop_start=86843
loop_xfade=21849
lovel=0
lpc=NuwnQp1TwsLtcKlCbvkxwp1AhEGweD/B6p0DQqHLB8LqAA1BpDaSQCVRQMByDmRA54QlwLIKBsBbAO5AoNPJwEd63z/gErQ/ZpwJwBMy5b4GMKY/t/G0Pu6micADbF1A
lpc_rms=-19.11
pitch_keycenter=D1
sample=Contrabassoon_nonvib_FF_D2.opus
</region>

<region>
hikey=C3
hivel=127
lokey=B2
loop_end=254862
loop_mode=loop_continuous
loop_start=82847
loop_xfade=20843
lovel=0
lpc=DClcQmec/cIG9rlC+xcBwmKvNkE69hFBZLVaP0aRacESuFdAn3/pvh5xOMAq0b1Am3fDvXgokL/gnMhAsvX8wEZyGMBtNqBAetISQECP1cCY51JAdMWvP4xlIcD1KpI/
lpc_rms=-19.62
pitch_keycenter=C3
sample=Contrabassoon_nonvib_FF_C4.opus
</region>

<region>
hikey=C2
hivel=127
lokey=B1
loop_end=262482
loop_mode=loop_continuous
loop_start=85324
loop_xfade=21466
lovel=0
lpc=V8MVQriWrMJ/xY1Cj7UUwqsq20EeHdnB3kX0Qd36nMH7dWBAVyvvPpHN0755CoxA7YTLwGFHk0CfumLASF+eQId5ysBSCo9AZEq9vxpR2T8RHBfA+lT4vioX6T4P6lc/
lpc_rms=-20.45
pitch_keycenter=C2
sample=Contrabassoon_nonvib_FF_C3.opus
</region>

<region>
hikey=C1
hivel=127
lokey=B0
loop_end=263387
loop_mode=loop_continuous
loop_start=85618
loop_xfade=21540
lovel=0
lpc=5S9WQtNJAMM5Ke5Ch3KEwgMgwkHJcEPBqrwNQoZOEsJFSnVAL31aQUswQMFXG1NBkLg3wcNZuL084oNBGZytwXIVa0G35gHBppYBQTG+McHxcyFBPptiwGS8nMCOqI9A
lpc_rms=-16.53
pitch_keycenter=C1
sample=Contrabassoon_nonvib_FF_C2.opus
</region>

<region>
hikey=A#2
hivel=127
lokey=A2
loop_end=262546
loop_mode=loop_continuous
loop_start=85345
loop_xfade=21471
lovel=0
lpc=DhvJQgSMfsORk2VDCJoIw0jS0EJ822PC4RlRQsaigMJHODVCuekmwnw3oUEG9H4/GbiFQdN4vcEoQ7lBi5PvwRfYoUHZBC/BulnhQLsyBr+ciua+rzMGQAfOg8DoYPw/
lpc_rms=-15.71
pitch_keycenter=A#2
sample=Contrabassoon_nonvib_FF_A#3.opus
</region>

<region>
hikey=A#1
hivel=127
lokey=A1
loop_end=262099
loop_mode=loop_continuous
loop_start=85200
loop_xfade=21435
lovel=0
lpc=aChHQq6tyMKttmxCD669wbA20kEfEbzBUAUIQvOlo8G4lVzBLrVKQU6wx7/DMBFBJVD7wN1sqj/oVmDARV6JQKIF+T5loQHAjK10P3oykr7kGBjAC72OP5Cfk7/dXABA
lpc_rms=-18.80
pitch_keycenter=A#1
sample=Contrabassoon_nonvib_FF_A#2.opus
</region>

<region>
hikey=A#0
hivel=127
lokey=A0
loop_end=259708
loop_mode=loop_continuous
loop_start=84422
loop_xfade=21239
lovel=0
lpc=mcGUQan5FcKVePRBO1a0wYAzpUESHa3BT/i8QWZqoMEihDJBiolowOHR0b8OJ+5AH/H5wIHoWUC7f+C/OVmEQKjmSsAm6s2+M0sfQJraPcDyQUJAokdiwI0KEEBz9OO+
lpc_rms=-20.37
pitch_keycenter=A#0
sample=Contrabassoon_nonvib_FF_A#1.opus
</region>
</group>